HIERARCHY
ROOT root
{
	OFFSET	0	13.1	24.9
	CHANNELS 6  Xposition Yposition Zposition Xrotation Yrotation Zrotation
	JOINT spine_1
	{
		OFFSET	0	9.99999	0
		CHANNELS 3  Xrotation Yrotation Zrotation
		JOINT spine_2
		{
			OFFSET	0	112	-10
			CHANNELS 3  Xrotation Yrotation Zrotation
			JOINT spine_3
			{
				OFFSET	0	206.5	19.3
				CHANNELS 3  Xrotation Yrotation Zrotation
				JOINT spine_4
				{
					OFFSET	0	110.4	14.6
					CHANNELS 3  Xrotation Yrotation Zrotation
					JOINT neck_1
					{
						OFFSET	0	71.8	-50.3
						CHANNELS 3  Xrotation Yrotation Zrotation
						JOINT neck_2
						{
							OFFSET	0	86.2	-25.8
							CHANNELS 3  Xrotation Yrotation Zrotation
							JOINT head_ee
							{
								OFFSET	0	179.8	-8.7
								CHANNELS 3  Xrotation Yrotation Zrotation
								End Site
								{
									OFFSET	1	0	0
								}
							}
						}
					}
					JOINT left_clavicle
					{
						OFFSET	-43.2	22.4	-70.8
						CHANNELS 3  Xrotation Yrotation Zrotation
						JOINT left_shoulder
						{
							OFFSET	-93.9	-5.79999	48.7
							CHANNELS 3  Xrotation Yrotation Zrotation
							JOINT left_elbow
							{
								OFFSET	-291.4	-30.8	15.2
								CHANNELS 3  Xrotation Yrotation Zrotation
								JOINT left_lowarm_twist
								{
									OFFSET	-110.7	-3.89999	13.6
									CHANNELS 3  Xrotation Yrotation Zrotation
									JOINT left_hand
									{
										OFFSET	-110.7	-3.89999	13.6
										CHANNELS 3  Xrotation Yrotation Zrotation
										JOINT left_ee
										{
											OFFSET	-80.8	-5.10001	12.1
											CHANNELS 3  Xrotation Yrotation Zrotation
											End Site
											{
												OFFSET	1	0	0
											}
										}
									}
								}
							}
						}
					}
					JOINT right_clavicle
					{
						OFFSET	43.2	22.4	-70.8
						CHANNELS 3  Xrotation Yrotation Zrotation
						JOINT right_shoulder
						{
							OFFSET	93.9	-5.79999	48.7
							CHANNELS 3  Xrotation Yrotation Zrotation
							JOINT right_elbow
							{
								OFFSET	291.4	-30.8	15.2
								CHANNELS 3  Xrotation Yrotation Zrotation
								JOINT right_lowarm_twist
								{
									OFFSET	110.7	-3.89999	13.6
									CHANNELS 3  Xrotation Yrotation Zrotation
									JOINT right_hand
									{
										OFFSET	110.7	-3.89999	13.6
										CHANNELS 3  Xrotation Yrotation Zrotation
										JOINT right_ee
										{
											OFFSET	80.8	-5.10001	12.1
											CHANNELS 3  Xrotation Yrotation Zrotation
											End Site
											{
												OFFSET	1	0	0
											}
										}
									}
								}
							}
						}
					}
				}
			}
		}
	}
	JOINT left_hip
	{
		OFFSET	-82.8	-127.5	0.300001
		CHANNELS 3  Xrotation Yrotation Zrotation
		JOINT left_knee
		{
			OFFSET	-28.2	-396.7	2.2
			CHANNELS 3  Xrotation Yrotation Zrotation
			JOINT left_ankle
			{
				OFFSET	-11.7	-411.3	35.4
				CHANNELS 3  Xrotation Yrotation Zrotation
				JOINT left_toes
				{
					OFFSET	0	-60	-88.6
					CHANNELS 3  Xrotation Yrotation Zrotation
					JOINT left_foot_ee
					{
						OFFSET	-22.5	-16.5	-42.2
						CHANNELS 3  Xrotation Yrotation Zrotation
						End Site
						{
							OFFSET	1	0	0
						}
					}
				}
			}
		}
	}
	JOINT right_hip
	{
		OFFSET	82.8	-127.5	0.300001
		CHANNELS 3  Xrotation Yrotation Zrotation
		JOINT right_knee
		{
			OFFSET	28.2	-396.7	2.2
			CHANNELS 3  Xrotation Yrotation Zrotation
			JOINT right_ankle
			{
				OFFSET	11.7	-411.3	35.4
				CHANNELS 3  Xrotation Yrotation Zrotation
				JOINT right_toes
				{
					OFFSET	0	-60	-88.6
					CHANNELS 3  Xrotation Yrotation Zrotation
					JOINT right_foot_ee
					{
						OFFSET	22.5	-16.5	-42.2
						CHANNELS 3  Xrotation Yrotation Zrotation
						End Site
						{
							OFFSET	1	0	0
						}
					}
				}
			}
		}
	}
}
MOTION
Frames: 10
Frame Time: 0.02
3607.75 770.771 -689.831 -18.0905 28.9014 9.42943 6.78061 0.187302 -0.532807 6.78074 0.220826 -0.519809 6.77858 0.268376 -0.496931 6.77829 0.186528 -0.533078 -24.7503 -4.20876 1.31154 -24.8972 -8.67279 -0.899929 -0.0 0.0 -0.0 4.62313 18.7861 9.17696 -38.8826 -32.8839 47.9121 0.593015 -16.3709 0.085302 -6.6404 -0.28075 0.800638 -0.797928 10.8425 -0.604986 -0.0 0.0 -0.0 9.05412 15.0791 -17.5991 -32.5265 20.1029 -56.2638 0.92832 24.6956 -0.203222 60.437 1.81299 7.1481 -1.05906 -12.2149 1.66038 0.0 0.0 0.0 16.7497 -37.8057 -2.45317 -8.02261 0.246237 1.2056 11.6216 2.58151 -1.6492 6.36562 -0.0 -0.0 -0.0 0.0 -0.0 23.1317 11.839 4.57463 -2.66949 -0.100671 -0.397274 -16.4688 -3.94579 -2.48002 28.93 -0.0 -0.0 0.0 0.0 0.0 
3602.23 770.146 -698.398 -17.8223 31.4233 9.27632 6.6249 0.157146 -0.467375 6.625 0.186568 -0.456429 6.6234 0.229533 -0.436406 6.62317 0.157731 -0.467179 -24.772 -4.52021 -0.522527 -24.9153 -8.49453 -2.75965 -0.0 0.0 -0.0 4.23663 20.1723 8.5809 -38.4531 -32.8422 49.1315 0.63571 -17.4799 0.0977322 -5.91708 -0.245679 0.71505 -0.991208 11.0213 -1.75756 -0.0 0.0 -0.0 8.92568 15.6195 -17.2894 -32.1685 20.8744 -55.9116 0.931 24.7583 -0.204343 60.0766 1.78075 7.11499 -1.2241 -11.22 3.15139 0.0 0.0 0.0 18.3055 -36.1729 -0.934203 -10.0958 0.282222 1.52169 13.8895 1.64529 -1.95684 7.85743 -0.0 -0.0 -0.0 0.0 -0.0 22.1009 11.8127 5.41864 -5.51712 -0.187518 -0.825625 -11.9574 -6.4991 -1.78833 29.4872 -0.0 -0.0 0.0 0.0 0.0 
3608.74 771.523 -702.761 -19.4901 33.225 10.9736 6.69072 0.303697 -0.421077 6.69075 0.329876 -0.400899 6.68842 0.366431 -0.367785 6.68836 0.303748 -0.42104 -23.7713 -4.43168 0.760399 -23.9193 -8.88592 -1.44868 -0.0 0.0 -0.0 4.36211 20.324 8.76602 -38.6488 -32.9329 47.8871 0.677202 -18.5449 0.110563 -6.06784 -0.252899 0.732925 -0.844315 9.85451 -1.33077 -0.0 0.0 -0.0 9.33276 15.9033 -18.1718 -31.9511 20.8208 -55.5105 0.940771 24.9866 -0.208453 60.4841 1.81721 7.1524 -1.18382 -11.4415 2.79561 0.0 0.0 0.0 19.7784 -39.6056 -1.45579 -10.0308 0.281267 1.51175 10.2583 1.88907 -1.46478 5.67092 -0.0 -0.0 -0.0 0.0 -0.0 21.8262 11.8885 4.82448 -2.88288 -0.107917 -0.429222 -15.0545 -6.0242 -2.25924 28.7401 -0.0 -0.0 0.0 0.0 0.0 
3608.79 768.185 -707.399 -20.3925 35.3834 11.6648 6.83196 0.324644 -0.346034 6.83196 0.346005 -0.324675 6.83003 0.374535 -0.291303 6.83006 0.323829 -0.346798 -23.3317 -3.75208 0.851403 -23.4366 -7.62298 -1.00154 -0.0 0.0 -0.0 4.05561 20.9269 8.31047 -39.1089 -32.9207 48.2332 0.731682 -19.9232 0.128512 -5.88198 -0.244005 0.710885 -0.687175 9.65074 -0.411412 -0.0 0.0 -0.0 9.54381 16.5548 -18.6045 -32.2484 21.1644 -54.5674 0.943926 25.0601 -0.209787 60.8218 1.84764 7.18322 -1.21088 -11.611 2.89132 0.0 0.0 0.0 21.0435 -36.3446 -1.13967 -11.7201 0.302411 1.77009 14.1946 -0.447946 -2.00632 6.91302 -0.0 -0.0 -0.0 0.0 -0.0 21.4987 11.4526 5.14547 -3.41643 -0.125512 -0.509215 -12.7294 -8.37066 -1.90402 28.3854 -0.0 -0.0 0.0 0.0 0.0 
3607.22 768.276 -715.61 -21.0926 38.3687 13.2187 6.97883 0.172421 -0.400463 6.9789 0.197554 -0.38868 6.97748 0.231684 -0.369354 6.97733 0.170444 -0.401309 -23.373 -4.36604 1.20476 -23.5178 -8.96509 -0.97445 -0.0 0.0 -0.0 3.98264 22.1748 8.20057 -39.6694 -32.9275 48.309 0.759293 -20.6128 0.138077 -5.32397 -0.217732 0.644548 -0.657493 8.73654 -0.613691 -0.0 0.0 -0.0 9.57243 13.3056 -18.8142 -32.2345 21.4067 -53.3839 0.96483 25.5449 -0.218722 60.0109 1.7749 7.10893 -1.08691 -9.50496 3.04207 0.0 0.0 0.0 20.562 -36.2426 -1.49759 -10.9634 0.293882 1.6543 11.9706 -0.129207 -1.70568 5.76453 -0.0 -0.0 -0.0 0.0 -0.0 20.3915 11.3709 4.63002 -3.61845 -0.131979 -0.539544 -12.2083 -10.4378 -1.82583 29.6629 -0.0 -0.0 0.0 0.0 0.0 
3607.53 767.566 -722.201 -21.6054 41.4867 13.9088 6.79142 -0.134241 -0.265143 6.79145 -0.117097 -0.273147 6.79196 -0.0911657 -0.28286 6.79187 -0.134694 -0.264913 -22.7064 -3.9076 0.799298 -22.815 -7.90898 -1.08183 -0.0 0.0 -0.0 2.51967 23.148 6.15851 -38.9799 -34.4718 48.9821 0.90338 -24.1086 0.192918 -4.17048 -0.165482 0.506637 -0.322775 7.49867 1.02573 -0.0 0.0 -0.0 9.85634 14.5585 -19.3929 -32.6671 22.0621 -53.3147 0.975546 25.792 -0.223363 58.0436 1.60288 6.92455 -1.64872 -9.29341 6.76289 0.0 0.0 0.0 21.1588 -35.4492 -0.819544 -11.266 0.297475 1.70058 12.9284 0.872199 -1.83118 7.53279 -0.0 -0.0 -0.0 0.0 -0.0 20.045 11.1665 4.81316 -6.2667 -0.206827 -0.939037 -7.05859 -14.7411 -1.05369 28.7334 -0.0 -0.0 0.0 0.0 0.0 
3606.26 765.407 -729.029 -22.9513 44.6307 14.9039 6.92499 -0.247036 -0.137078 6.92497 -0.237813 -0.15252 6.92563 -0.22299 -0.173472 6.92567 -0.247589 -0.136078 -22.2974 -3.55972 1.14429 -22.388 -7.40482 -0.572785 -0.0 0.0 -0.0 2.41702 22.5676 5.9933 -40.7398 -34.7385 48.9105 1.00531 -26.4729 0.236475 -3.82933 -0.150562 0.465653 -0.0358803 6.34014 2.41125 -0.0 0.0 -0.0 10.4517 14.4617 -20.7207 -33.1141 21.5406 -52.1422 0.930916 24.7564 -0.204308 58.051 1.60351 6.92525 -1.5336 -8.14582 6.5498 0.0 0.0 0.0 23.2886 -33.6937 0.258141 -12.7575 0.311616 1.92899 12.3907 -1.56949 -1.76935 5.52094 -0.0 -0.0 -0.0 0.0 -0.0 19.4221 10.5665 5.40157 -7.37461 -0.232645 -1.10709 -4.09346 -17.0885 -0.611133 28.6121 -0.0 -0.0 0.0 0.0 0.0 
3604.69 764.521 -734.761 -23.3729 47.7089 16.0382 7.00375 -0.399989 -0.0845275 7.00366 -0.3938 -0.109809 7.00452 -0.38241 -0.144566 7.00472 -0.400442 -0.0823564 -22.2893 -2.94701 0.46081 -22.3482 -5.90305 -0.922394 -0.0 0.0 -0.0 2.03701 21.6682 5.41422 -41.5337 -35.4411 49.6133 1.06278 -27.7647 0.262671 -2.43251 -0.0920339 0.296957 0.141965 6.17216 3.50514 -0.0 0.0 -0.0 10.5354 14.0861 -20.9211 -33.4328 21.5824 -51.8491 0.948639 25.1697 -0.211787 56.974 1.51205 6.82186 -1.60551 -7.70283 7.22492 0.0 0.0 0.0 23.9777 -28.1169 0.44803 -14.3939 0.320285 2.1799 14.9005 -2.2182 -2.11004 7.53881 -0.0 -0.0 -0.0 0.0 -0.0 18.328 13.0845 5.10402 -9.41048 -0.271593 -1.41706 -0.674946 -19.2807 -0.100726 28.7515 -0.0 -0.0 0.0 0.0 0.0 
3601.23 761.346 -740.574 -24.3098 49.2493 16.8606 6.91242 -0.29798 -0.122567 6.91238 -0.289577 -0.14128 6.91314 -0.275525 -0.167035 6.91322 -0.298447 -0.121425 -21.7833 -2.16068 -0.122475 -21.8108 -4.11124 -1.08221 -0.0 0.0 -0.0 1.88584 21.5482 5.19188 -41.9615 -35.8581 50.3883 1.1562 -29.8008 0.30766 -1.90059 -0.0708316 0.232354 0.203984 7.30965 4.37306 -0.0 0.0 -0.0 10.9584 13.8316 -21.8763 -33.2605 21.6525 -50.7606 0.946516 25.1204 -0.210886 55.1415 1.36098 6.64211 -1.43677 -6.98483 6.45261 0.0 0.0 0.0 24.7257 -23.8005 0.792925 -15.5036 0.322085 2.35016 16.3299 -2.85069 -2.30265 6.76766 -0.0 -0.0 -0.0 0.0 -0.0 18.1467 11.2842 5.10976 -9.99632 -0.280756 -1.50648 1.73583 -21.7866 0.260064 27.9328 -0.0 -0.0 0.0 0.0 0.0 
3599.48 760.726 -737.522 -25.0666 50.4242 17.8783 7.10051 -0.178668 -0.159609 7.10051 -0.16815 -0.170655 7.10101 -0.152535 -0.184744 7.10101 -0.179798 -0.158336 -20.9449 -1.51527 -1.44225 -20.9462 -2.21425 -1.99434 -0.0 0.0 -0.0 1.3614 21.1968 4.41796 -39.37 -37.2473 53.8033 1.035 -27.1439 0.249863 0.230993 0.0080814 -0.0283939 -0.353211 9.87657 1.82574 -0.0 0.0 -0.0 11.0466 13.5453 -22.0829 -32.7426 22.0811 -49.9393 0.908029 24.2184 -0.194821 53.2902 1.2143 6.45575 -1.3452 -6.69333 5.98595 0.0 0.0 0.0 25.6811 -21.5483 1.27907 -16.4747 0.320954 2.49915 15.4396 -0.226908 -2.16978 8.48316 -0.0 -0.0 -0.0 0.0 -0.0 17.4685 11.7618 5.31629 -9.34123 -0.270449 -1.40649 4.4652 -21.189 0.662785 27.1438 -0.0 -0.0 0.0 0.0 0.0 
